<svg width="32" height="32" viewBox="0 0 32 32" fill="none" xmlns="http://www.w3.org/2000/svg">
<path d="M24.588 17.6285C25.2858 18.1002 29.2115 20.6944 29.2115 20.6944L25.0504 23.0528L24.588 27.7694L19.5021 22.1094C19.5021 22.1094 17.6527 19.7511 16.728 16.9211C15.8032 14.0912 16.2656 14.091 16.2656 14.091C16.2656 14.091 16.728 13.6194 17.1903 13.6194C17.6527 13.6194 23.8902 17.1569 24.588 17.6285Z" fill="#FE8FA2"/>
<path d="M24.588 17.6285C25.2858 18.1002 29.2115 20.6944 29.2115 20.6944L25.0504 23.0528L24.588 27.7694L19.5021 22.1094C19.5021 22.1094 17.6527 19.7511 16.728 16.9211C15.8032 14.0912 16.2656 14.091 16.2656 14.091C16.2656 14.091 16.728 13.6194 17.1903 13.6194C17.6527 13.6194 23.8902 17.1569 24.588 17.6285Z" fill="url(#paint0_linear_34_2)" fill-opacity="0.2" style="mix-blend-mode:plus-darker"/>
<path d="M7.71199 17.6285C7.01417 18.1002 3.08844 20.6944 3.08844 20.6944L7.24964 23.0528L7.71199 27.7694L12.7979 22.1094C12.7979 22.1094 14.6473 19.7511 15.572 16.9211C16.4967 14.0912 16.0344 14.091 16.0344 14.091C16.0344 14.091 15.572 13.6194 15.1097 13.6194C14.6473 13.6194 8.40981 17.1569 7.71199 17.6285Z" fill="#FE8FA2"/>
<path d="M7.71199 17.6285C7.01417 18.1002 3.08844 20.6944 3.08844 20.6944L7.24964 23.0528L7.71199 27.7694L12.7979 22.1094C12.7979 22.1094 14.6473 19.7511 15.572 16.9211C16.4967 14.0912 16.0344 14.091 16.0344 14.091C16.0344 14.091 15.572 13.6194 15.1097 13.6194C14.6473 13.6194 8.40981 17.1569 7.71199 17.6285Z" fill="url(#paint1_linear_34_2)" fill-opacity="0.2" style="mix-blend-mode:plus-darker"/>
<path d="M13.0815 8.17692C14.8349 9.26538 16.15 9.99102 16.15 9.99102V10.7167V14.3449L12.2048 16.159C10.6641 16.8674 9.61484 17.2565 7.82131 17.6103C6.47875 17.875 6.06791 17.9731 4.3145 17.9731C2.56109 17.9731 2.56109 17.6103 2.56109 17.6103C2.56109 17.6103 1.6844 7.45128 2.12274 6.72564C2.56108 6 4.3145 6 4.3145 6C4.3145 6 6.50625 6 7.82131 6.36282C9.13638 6.72564 11.3281 7.08846 13.0815 8.17692Z" fill="#FE8FA2"/>
<path d="M13.0815 8.17692C14.8349 9.26538 16.15 9.99102 16.15 9.99102V10.7167V14.3449L12.2048 16.159C10.6641 16.8674 9.61484 17.2565 7.82131 17.6103C6.47875 17.875 6.06791 17.9731 4.3145 17.9731C2.56109 17.9731 2.56109 17.6103 2.56109 17.6103C2.56109 17.6103 1.6844 7.45128 2.12274 6.72564C2.56108 6 4.3145 6 4.3145 6C4.3145 6 6.50625 6 7.82131 6.36282C9.13638 6.72564 11.3281 7.08846 13.0815 8.17692Z" fill="url(#paint2_linear_34_2)" fill-opacity="0.2" style="mix-blend-mode:multiply"/>
<path d="M14.1348 9.91589C14.0615 9.89146 13.9881 9.86702 12.5635 9.49193C11.1389 9.11685 8.36522 8.39186 6.91802 8.01635C5.47082 7.64083 5.43417 7.63676 5.40103 7.62855C5.27457 7.59723 5.17054 7.55456 4.97849 7.49526C4.82818 7.44884 4.5665 7.383 4.42204 7.34326C4.22243 7.28835 4.17476 7.27056 4.13162 7.26236C4.11281 7.25878 4.1007 7.25415 4.87031 7.40071C5.63991 7.54728 7.19171 7.8446 8.57152 8.15051C9.95133 8.45641 11.1121 8.76189 11.7203 8.92332C12.3285 9.08476 12.3488 9.09291 12.3675 9.09914C12.4526 9.1276 12.5424 9.1793 12.602 9.21226C12.6666 9.2479 12.748 9.28224 12.8671 9.33352C13.0055 9.3931 13.1017 9.40147 13.1535 9.41399C13.1578 9.41503 13.1313 9.39776 12.6973 9.24688C12.2632 9.09599 11.416 8.80681 10.2587 8.48678C9.10132 8.16674 7.65949 7.82461 6.88822 7.64429C6.11694 7.46397 6.05992 7.45582 6.02444 7.44959C5.93582 7.43402 5.83702 7.42694 5.75056 7.42071C5.63923 7.41268 5.51637 7.39411 5.28637 7.35708C5.01235 7.31297 4.92369 7.27883 4.84334 7.26236C4.74682 7.23773 4.51331 7.21292 4.29121 7.21496C4.21166 7.217 4.19944 7.22107 4.16217 7.23761" stroke="#FC7E92" stroke-linecap="round"/>
<path d="M19.2185 8.17692C17.4651 9.26538 16.15 9.99102 16.15 9.99102V10.7167V14.3449L20.0952 16.159C21.6358 16.8674 22.6851 17.2565 24.4787 17.6103C25.8212 17.875 26.2321 17.9731 27.9855 17.9731C29.7389 17.9731 29.7389 17.6103 29.7389 17.6103C29.7389 17.6103 30.6156 7.45128 30.1772 6.72564C29.7389 6 27.9855 6 27.9855 6C27.9855 6 25.7937 6 24.4787 6.36282C23.1636 6.72564 20.9718 7.08846 19.2185 8.17692Z" fill="#FE8FA2"/>
<path d="M19.2185 8.17692C17.4651 9.26538 16.15 9.99102 16.15 9.99102V10.7167V14.3449L20.0952 16.159C21.6358 16.8674 22.6851 17.2565 24.4787 17.6103C25.8212 17.875 26.2321 17.9731 27.9855 17.9731C29.7389 17.9731 29.7389 17.6103 29.7389 17.6103C29.7389 17.6103 30.6156 7.45128 30.1772 6.72564C29.7389 6 27.9855 6 27.9855 6C27.9855 6 25.7937 6 24.4787 6.36282C23.1636 6.72564 20.9718 7.08846 19.2185 8.17692Z" fill="url(#paint3_linear_34_2)" fill-opacity="0.2" style="mix-blend-mode:multiply"/>
<path d="M18.1652 9.91589C18.2385 9.89146 18.3119 9.86702 19.7365 9.49193C21.1611 9.11685 23.9348 8.39186 25.382 8.01635C26.8292 7.64083 26.8658 7.63676 26.899 7.62855C27.0254 7.59723 27.1295 7.55456 27.3215 7.49526C27.4718 7.44884 27.7335 7.383 27.878 7.34326C28.0776 7.28835 28.1252 7.27056 28.1684 7.26236C28.1872 7.25878 28.1993 7.25415 27.4297 7.40071C26.6601 7.54728 25.1083 7.8446 23.7285 8.15051C22.3487 8.45641 21.1879 8.76189 20.5797 8.92332C19.9715 9.08476 19.9512 9.09291 19.9325 9.09914C19.8474 9.1276 19.7576 9.1793 19.698 9.21226C19.6334 9.2479 19.552 9.28224 19.4329 9.33352C19.2945 9.3931 19.1983 9.40147 19.1465 9.41399C19.1422 9.41503 19.1687 9.39776 19.6027 9.24688C20.0368 9.09599 20.884 8.80681 22.0413 8.48678C23.1987 8.16674 24.6405 7.82461 25.4118 7.64429C26.183 7.46397 26.2401 7.45582 26.2755 7.44959C26.3642 7.43402 26.463 7.42694 26.5494 7.42071C26.6608 7.41268 26.7836 7.39411 27.0136 7.35708C27.2876 7.31297 27.3763 7.27883 27.4566 7.26236C27.5532 7.23773 27.7867 7.21292 28.0088 7.21496C28.0883 7.217 28.1005 7.22107 28.1378 7.23761" stroke="#FC7E92" stroke-linecap="round"/>
<rect x="13.9731" y="9.26538" width="4.35385" height="6.53077" rx="2.17692" fill="#FFA2B2"/>
<defs>
<linearGradient id="paint0_linear_34_2" x1="17.9311" y1="14.7986" x2="23.2269" y2="21.909" gradientUnits="userSpaceOnUse">
<stop offset="0.158654" stop-color="#C24557"/>
<stop offset="1" stop-color="#E55C70" stop-opacity="0"/>
</linearGradient>
<linearGradient id="paint1_linear_34_2" x1="14.3689" y1="14.7986" x2="9.07307" y2="21.909" gradientUnits="userSpaceOnUse">
<stop offset="0.158654" stop-color="#C24557"/>
<stop offset="1" stop-color="#E55C70" stop-opacity="0"/>
</linearGradient>
<linearGradient id="paint2_linear_34_2" x1="6.89808" y1="11.9865" x2="15.0615" y2="11.9865" gradientUnits="userSpaceOnUse">
<stop stop-color="#FE8FA2" stop-opacity="0"/>
<stop offset="1" stop-color="#F26A81"/>
</linearGradient>
<linearGradient id="paint3_linear_34_2" x1="25.4019" y1="11.9865" x2="17.2385" y2="11.9865" gradientUnits="userSpaceOnUse">
<stop stop-color="#FE8FA2" stop-opacity="0"/>
<stop offset="1" stop-color="#F26A81"/>
</linearGradient>
</defs>
</svg>
